<?xml version="1.0" encoding="utf-8"?>
<!-- Generator: Adobe Illustrator 22.0.1, SVG Export Plug-In . SVG Version: 6.00 Build 0)  -->
<svg version="1.1" id="Capa_1" xmlns="http://www.w3.org/2000/svg" xmlns:xlink="http://www.w3.org/1999/xlink" x="0px" y="0px"
	 viewBox="0 0 47.4 47.5" style="enable-background:new 0 0 47.4 47.5;" xml:space="preserve">
<style type="text/css">
	.st0{fill:#FFFFFF;}
</style>
<title>face_bgw</title>
<path class="st0" d="M39,0H8.5C3.8,0,0,3.8,0,8.5V39c0,4.7,3.8,8.5,8.5,8.5l0,0H39c4.7,0,8.4-3.8,8.4-8.5V8.5C47.4,3.8,43.7,0,39,0z
	 M30.3,14.4h-3.1c-1.1,0-1.3,0.4-1.3,1.6v2.8h4.5L30,23.6h-4V38h-5.8V23.6h-3v-4.9h3v-3.9c0-3.6,1.9-5.5,6.2-5.5h4v5.1H30.3z"/>
</svg>
