<?xml version="1.0" encoding="utf-8"?>
<!-- Generator: Adobe Illustrator 22.0.1, SVG Export Plug-In . SVG Version: 6.00 Build 0)  -->
<svg version="1.1" id="Capa_1" xmlns="http://www.w3.org/2000/svg" xmlns:xlink="http://www.w3.org/1999/xlink" x="0px" y="0px"
	 viewBox="0 0 47.4 47.5" style="enable-background:new 0 0 47.4 47.5;" xml:space="preserve">
<style type="text/css">
	.st0{fill:#FFFFFF;}
</style>
<title>insta_bgw</title>
<path class="st0" d="M33.8,16c-0.2-0.6-0.6-1.1-1-1.5s-0.9-0.8-1.5-1c-0.8-0.3-1.5-0.4-2.3-0.4C27.6,13,27.2,13,23.7,13
	s-3.9,0-5.3,0.1c-0.8,0-1.6,0.2-2.4,0.4c-1.1,0.4-2,1.3-2.5,2.5c-0.3,0.8-0.4,1.6-0.4,2.4C13,19.8,13,20.2,13,23.7s0,3.9,0.1,5.3
	c0,0.8,0.2,1.6,0.4,2.4c0.2,0.6,0.6,1.1,1,1.5s0.9,0.8,1.5,1c0.8,0.3,1.6,0.4,2.4,0.5c1.4,0.1,1.8,0.1,5.3,0.1s3.9,0,5.3-0.1
	c0.8,0,1.6-0.2,2.4-0.5c1.1-0.4,2-1.3,2.5-2.5c0.3-0.8,0.4-1.6,0.4-2.4c0.1-1.4,0.1-1.8,0.1-5.3s0-3.9-0.1-5.3
	C34.3,17.7,34.1,16.8,33.8,16z M23.7,30.4c-3.7,0-6.7-3-6.7-6.7s3-6.7,6.7-6.7s6.7,3,6.7,6.7S27.4,30.4,23.7,30.4L23.7,30.4z
	 M30.6,18.3c-0.9,0-1.6-0.7-1.6-1.6c0-0.9,0.7-1.6,1.6-1.6s1.6,0.7,1.6,1.6l0,0C32.2,17.6,31.5,18.3,30.6,18.3L30.6,18.3z"/>
<path class="st0" d="M39,0H8.5C3.8,0,0,3.8,0,8.5V39c0,4.7,3.8,8.5,8.5,8.5l0,0H39c4.7,0,8.4-3.8,8.4-8.5V8.5C47.4,3.8,43.7,0,39,0z
	 M36.6,29.1c0,1.1-0.3,2.1-0.6,3.2c-0.7,1.7-2.1,3.1-3.8,3.8c-1,0.4-2.1,0.6-3.2,0.6c-1.4,0.1-1.8,0.1-5.4,0.1s-4,0-5.4-0.1
	c-1.1,0-2.1-0.3-3.1-0.6c-0.9-0.3-1.7-0.8-2.3-1.5c-0.7-0.6-1.2-1.4-1.5-2.3c-0.4-1-0.6-2.1-0.6-3.2c-0.1-1.4-0.1-1.8-0.1-5.4
	s0-4,0.1-5.4c0-1.1,0.2-2.1,0.6-3.1c0.7-1.8,2.1-3.1,3.8-3.8c1-0.4,2.1-0.6,3.1-0.6c1.4-0.1,1.8-0.1,5.4-0.1s4,0,5.4,0.1
	c1.1,0,2.1,0.2,3.2,0.6c0.9,0.3,1.7,0.8,2.3,1.5c0.7,0.7,1.2,1.5,1.5,2.3c0.4,1,0.6,2.1,0.6,3.2c0.1,1.4,0.1,1.8,0.1,5.4
	S36.7,27.7,36.6,29.1z"/>
<circle class="st0" cx="23.7" cy="23.7" r="4.3"/>
</svg>
