<?xml version="1.0" encoding="utf-8"?>
<!-- Generator: Adobe Illustrator 22.0.1, SVG Export Plug-In . SVG Version: 6.00 Build 0)  -->
<svg version="1.1" id="Capa_1" xmlns="http://www.w3.org/2000/svg" xmlns:xlink="http://www.w3.org/1999/xlink" x="0px" y="0px"
	 viewBox="0 0 47.4 47.5" style="enable-background:new 0 0 47.4 47.5;" xml:space="preserve">
<style type="text/css">
	.st0{fill:#FFFFFF;}
</style>
<title>mail_bgw</title>
<path class="st0" d="M39,0H8.5C3.8,0,0,3.8,0,8.5V39c0,4.7,3.8,8.5,8.5,8.5l0,0H39c4.7,0,8.4-3.8,8.4-8.5V8.5C47.4,3.8,43.7,0,39,0z
	 M8,11.6h31.5c0.5,0,1,0.1,1.5,0.4L25,26c-0.7,0.7-2,0.7-2.7,0L6.4,12.1C6.9,11.8,7.4,11.6,8,11.6L8,11.6z M42.3,33
	c0,1.5-1.2,2.8-2.8,2.8l0,0H7.9c-1.5,0-2.8-1.2-2.8-2.8l0,0V14.4c0-0.3,0.1-0.6,0.2-0.9l15.8,13.8c1.5,1.3,3.7,1.3,5.1,0l15.9-13.8
	c0.1,0.3,0.2,0.6,0.2,0.9V33z"/>
</svg>
