<?xml version="1.0" encoding="utf-8"?>
<!-- Generator: Adobe Illustrator 22.0.1, SVG Export Plug-In . SVG Version: 6.00 Build 0)  -->
<svg version="1.1" id="Capa_1" xmlns="http://www.w3.org/2000/svg" xmlns:xlink="http://www.w3.org/1999/xlink" x="0px" y="0px"
	 viewBox="0 0 47.4 47.5" style="enable-background:new 0 0 47.4 47.5;" xml:space="preserve">
<style type="text/css">
	.st0{fill:$bgbody;}
</style>
<title>pinterest_bgw</title>
<path class="st0" d="M39,0H8.5C3.8,0,0,3.8,0,8.5V39c0,4.7,3.8,8.5,8.5,8.5l0,0H39c4.7,0,8.4-3.8,8.4-8.5V8.5C47.4,3.8,43.7,0,39,0z
	 M25.9,30c-1.6,0.1-3.1-0.7-4-2c0,0-0.9,3.7-1.1,4.4c-0.7,1.9-1.6,3.7-2.9,5.3c-0.1,0.1-0.2,0.1-0.3,0c0,0-0.1-0.1-0.1-0.1
	c-0.3-2-0.3-4.1,0-6.1l2.1-8.8c-0.4-0.8-0.5-1.7-0.5-2.6c0-2.4,1.4-4.2,3.1-4.2c1.2,0,2.2,0.9,2.2,2.1c0,0.1,0,0.2,0,0.3
	c0,1.5-0.9,3.7-1.4,5.7c-0.3,1.3,0.5,2.7,1.8,3c0.2,0.1,0.5,0.1,0.7,0.1c3.1,0,5.1-3.9,5.1-8.6c0-3.5-2.4-6.2-6.7-6.2
	c-4.2-0.2-7.8,3.1-8,7.3c0,0.1,0,0.3,0,0.4c0,1.2,0.3,2.3,1.1,3.2c0.3,0.2,0.4,0.6,0.2,0.9c-0.1,0.3-0.3,1-0.3,1.3
	c-0.1,0.3-0.3,0.5-0.7,0.5c-0.1,0-0.1,0-0.2-0.1c-2.3-0.9-3.3-3.4-3.3-6.2c0-4.6,3.9-10.1,11.6-10.1c6.2,0,10.2,4.5,10.2,9.3
	C34.6,25.3,31.1,30,25.9,30z"/>
</svg>
