<?xml version="1.0" encoding="utf-8"?>
<!-- Generator: Adobe Illustrator 22.0.1, SVG Export Plug-In . SVG Version: 6.00 Build 0)  -->
<svg version="1.1" id="Capa_1" xmlns="http://www.w3.org/2000/svg" xmlns:xlink="http://www.w3.org/1999/xlink" x="0px" y="0px"
	 viewBox="0 0 47.4 47.5" style="enable-background:new 0 0 47.4 47.5;" xml:space="preserve">
<style type="text/css">
	.st0{fill:$bgbody;}
</style>
<title>twiter_bgw</title>
<path class="st0" d="M39,0H8.5C3.8,0,0,3.8,0,8.5V39c0,4.7,3.8,8.5,8.5,8.5l0,0H39c4.7,0,8.4-3.8,8.4-8.5V8.5C47.4,3.8,43.7,0,39,0z
	 M33.8,18.6c0.4,8.1-5.9,15-14,15.4c-3.1,0.1-6.1-0.7-8.7-2.3c2.7,0.3,5.5-0.4,7.7-2.1c-2.2,0-4.2-1.5-4.8-3.6
	c0.8,0.2,1.6,0.1,2.3-0.1c-2.4-0.5-4.2-2.7-4.2-5.1c0.7,0.4,1.5,0.6,2.4,0.6c-2.3-1.5-3-4.6-1.6-6.9c2.6,3.2,6.5,5.2,10.7,5.4
	c-0.7-2.8,1.1-5.6,3.9-6.2c1.8-0.4,3.7,0.2,5,1.5c1.2-0.2,2.3-0.7,3.3-1.3c-0.4,1.2-1.2,2.2-2.3,2.9c1-0.1,2-0.4,3-0.8
	C35.7,16.9,34.8,17.8,33.8,18.6L33.8,18.6z"/>
</svg>
