<?xml version="1.0" encoding="utf-8"?>
<!-- Generator: Adobe Illustrator 22.0.1, SVG Export Plug-In . SVG Version: 6.00 Build 0)  -->
<svg version="1.1" id="Capa_1" xmlns="http://www.w3.org/2000/svg" xmlns:xlink="http://www.w3.org/1999/xlink" x="0px" y="0px"
	 viewBox="0 0 47.4 47.5" style="enable-background:new 0 0 47.4 47.5;" xml:space="preserve">
<style type="text/css">
	.st0{fill:$bgbody;}
</style>
<title>youtube_bgw</title>
<path class="st0" d="M39,0H8.5C3.8,0,0,3.8,0,8.5V39c0,4.7,3.8,8.5,8.5,8.5l0,0H39c4.7,0,8.4-3.8,8.4-8.5V8.5C47.4,3.8,43.7,0,39,0z
	 M41.9,32.9c-0.4,1.6-1.7,2.9-3.4,3.4c-3,0.8-14.8,0.8-14.8,0.8s-11.9,0-14.8-0.8c-1.6-0.4-2.9-1.7-3.3-3.4c-0.8-3-0.8-9.2-0.8-9.2
	s0-6.2,0.8-9.2c0.4-1.6,1.7-2.9,3.3-3.4c3-0.8,14.8-0.8,14.8-0.8s11.9,0,14.8,0.8c1.6,0.4,2.9,1.7,3.4,3.4c0.8,3,0.8,9.2,0.8,9.2
	S42.7,29.9,41.9,32.9z"/>
<polygon class="st0" points="19.8,29.4 29.8,23.7 19.8,18.1 "/>
</svg>
