<svg width="54" height="48" viewBox="0 0 54 48" fill="none" xmlns="http://www.w3.org/2000/svg">
<rect width="54" height="48" rx="10" fill="#8E99A4"/>
<path d="M23.485 32.7893C21.3087 32.7893 19.5352 34.5487 19.5352 36.7179C19.5352 38.88 21.3087 40.6394 23.485 40.6394C25.6613 40.6394 27.4348 38.88 27.4348 36.7179C27.4418 34.5487 25.6683 32.7893 23.485 32.7893ZM23.485 37.8131C22.8632 37.8131 22.3615 37.3185 22.3615 36.7179C22.3615 36.1103 22.8631 35.6157 23.485 35.6157C24.1068 35.6157 24.6084 36.1103 24.6084 36.7179C24.6155 37.3185 24.1068 37.8131 23.485 37.8131Z" fill="black"/>
<path d="M36.1393 32.7893C33.963 32.7893 32.1895 34.5487 32.1895 36.7179C32.1895 38.88 33.963 40.6394 36.1393 40.6394C38.3155 40.6394 40.0891 38.88 40.0891 36.7179C40.0961 34.5487 38.3226 32.7893 36.1393 32.7893ZM36.1393 37.8131C35.5175 37.8131 35.0158 37.3185 35.0158 36.7179C35.0158 36.1103 35.5174 35.6157 36.1393 35.6157C36.7611 35.6157 37.2627 36.1103 37.2627 36.7179C37.2698 37.3185 36.7611 37.8131 36.1393 37.8131Z" fill="black"/>
<path d="M41.2545 12.8779H19.1317C18.4887 10.9701 16.6022 9.7689 14.5673 10.0374L12.2285 10.3412C11.4513 10.4401 10.9072 11.1538 11.0132 11.924C11.1192 12.6941 11.8258 13.2382 12.603 13.1392L14.9417 12.8283C15.6978 12.7294 16.3902 13.2382 16.5174 13.9872L18.5312 25.5818L18.8562 27.5179C19.3084 30.2594 21.6542 32.2378 24.4311 32.2378H38.3366C39.1138 32.2378 39.7498 31.6019 39.7498 30.8246C39.7498 30.0474 39.1138 29.4115 38.3366 29.4115H24.4169C23.0532 29.4115 21.8944 28.4929 21.6401 27.1504H34.9661C37.531 27.1504 39.7779 25.4123 40.435 22.9392L42.6254 14.6366C42.7384 14.2127 42.6466 13.7675 42.3781 13.4213C42.1096 13.0751 41.6997 12.8773 41.2546 12.8773L41.2545 12.8779ZM37.7004 22.2257C37.3754 23.4622 36.2519 24.3242 34.9659 24.3242H21.1664L19.6684 15.7038H39.4171L37.7004 22.2257Z" fill="black"/>
</svg>
