<svg width="55" height="48" viewBox="0 0 55 48" fill="none" xmlns="http://www.w3.org/2000/svg">
<rect width="55" height="48" rx="10" fill="#8E99A4"/>
<path d="M34.1268 13.9669H34.4263C37.5705 14.1152 40.1159 16.6373 39.966 19.9009V20.346C39.5168 28.9503 29.9347 34.5879 27.8384 35.033C25.5925 34.4396 16.4596 28.0602 16.0105 20.7911C15.8606 19.0111 16.4594 17.2308 17.6573 15.8957C18.5556 14.8573 19.9031 14.2637 21.2506 14.2637C22.8977 14.412 24.5444 15.1538 25.5927 16.3407L27.9882 18.7143L30.0844 16.1922C31.1323 15.0055 32.4799 14.1154 34.1269 13.9669H34.1268ZM34.1269 11C31.5815 11.1483 29.3357 12.3352 27.689 14.2637C26.042 12.4834 23.6465 11.4451 21.2511 11.2965C19.005 11.2965 16.9088 12.1867 15.4117 13.8186C13.7646 15.7471 12.8663 18.2692 13.0162 20.9396C13.615 30.2858 24.9943 38 27.6893 38H27.9886C30.6836 38 42.362 31.0272 42.9607 20.4945C43.4098 15.7471 39.9661 11.4452 35.0251 11.0001H34.7256L34.1269 11Z" fill="black"/>
</svg>
