<svg width="55" height="48" viewBox="0 0 55 48" fill="none" xmlns="http://www.w3.org/2000/svg">
<rect width="55" height="48" rx="10" fill="#8E99A4"/>
<path d="M28.0958 23.3322C32.8728 23.3322 36.7619 19.4431 36.7619 14.6661C36.7619 9.88941 32.8727 6 28.0958 6C23.3189 6 19.4297 9.88919 19.4297 14.6661C19.4297 19.4431 23.3189 23.3322 28.0958 23.3322ZM28.0958 7.69095C31.9428 7.69095 35.0708 10.8193 35.0708 14.666C35.0708 18.513 31.9427 21.6413 28.0958 21.6413C24.2489 21.6413 21.1208 18.513 21.1208 14.666C21.1208 10.8193 24.2489 7.69095 28.0958 7.69095Z" fill="black" stroke="black"/>
<path d="M43.2297 31.4911C43.0183 30.8571 42.7647 30.2228 42.4264 29.6734C42.046 28.9548 41.581 28.2362 41.0735 27.602C38.6216 24.6004 34.5635 23.5014 30.7165 24.7696C29.0257 25.3193 27.2077 25.3193 25.5169 24.7696C21.6699 23.5013 17.6117 24.6428 15.1598 27.602C14.6526 28.2359 14.1876 28.9124 13.8069 29.6734C13.5108 30.2653 13.2151 30.8992 13.0461 31.4911C12.9615 31.7025 13.0039 31.9561 13.0883 32.1675C13.4265 32.7593 13.7647 33.309 14.1873 33.8583C15.371 35.507 16.8082 36.902 18.4993 38.0435C19.3447 38.6353 20.2326 39.1425 21.1626 39.5232C23.3609 40.4954 25.7282 41.003 28.1801 41.003C30.632 41.003 32.9994 40.4958 35.1977 39.5232C36.1277 39.1004 37.0153 38.5932 37.861 38.0435C39.5518 36.902 40.9893 35.4648 42.173 33.8583C42.5534 33.3087 42.9338 32.7168 43.272 32.1675C43.2717 31.9983 43.2717 31.7447 43.2296 31.4911H43.2297ZM40.6931 32.9283C39.6363 34.408 38.3259 35.6759 36.804 36.7328C36.0432 37.24 35.2399 37.705 34.3942 38.0857C32.4073 38.9736 30.2936 39.4386 28.0953 39.4386C25.897 39.4386 23.7833 38.9736 21.7543 38.0857C20.9089 37.7053 20.1056 37.2403 19.3445 36.7328C17.8227 35.7181 16.5122 34.4077 15.4553 32.9283C15.1593 32.5479 14.9057 32.125 14.652 31.7025C14.821 31.2797 14.9903 30.8571 15.2017 30.4767C15.5399 29.8427 15.9203 29.2509 16.3854 28.7012C18.3722 26.2493 21.7542 25.3618 24.9247 26.3761C26.9537 27.0525 29.152 27.0525 31.1811 26.3761C34.3516 25.3193 37.6911 26.2493 39.7204 28.7012C40.1854 29.2509 40.5658 29.8427 40.9041 30.4767C41.1155 30.8571 41.2845 31.28 41.4537 31.7025C41.2426 32.1251 40.989 32.5055 40.6929 32.9283H40.6931Z" fill="black" stroke="black"/>
</svg>
