<svg width="54" height="48" viewBox="0 0 54 48" fill="none" xmlns="http://www.w3.org/2000/svg">
<rect width="54" height="48" rx="10" fill="#8E99A4"/>
<path d="M25.0348 11.0004C21.5012 11.0019 18.182 12.6948 16.1063 15.554C14.0304 18.4135 13.4485 22.0936 14.5411 25.4534C15.634 28.8137 18.2689 31.4479 21.6297 32.5396C24.9902 33.631 28.6702 33.0478 31.5291 30.9711L37.0274 36.4694C37.465 36.907 38.1031 37.0779 38.701 36.9178C39.2989 36.7575 39.7658 36.2906 39.9262 35.6926C40.0863 35.0947 39.9153 34.4566 39.4777 34.0191L33.9794 28.5208C35.5854 26.3135 36.3157 23.5893 36.0297 20.8747C35.7434 18.1602 34.4612 15.6482 32.4302 13.8242C30.3996 12.0002 27.7645 10.994 25.0352 11L25.0348 11.0004ZM25.0348 29.6164C23.0253 29.6164 21.0983 28.8183 19.6775 27.3974C18.2566 25.9765 17.4585 24.0495 17.4585 22.0401C17.4585 20.0307 18.2566 18.1037 19.6775 16.6828C21.0983 15.2619 23.0253 14.4638 25.0348 14.4638C27.0442 14.4638 28.9712 15.2619 30.3921 16.6828C31.8129 18.1037 32.6111 20.0307 32.6111 22.0401C32.6086 24.0486 31.8099 25.9744 30.3893 27.3947C28.9691 28.8152 27.0433 29.614 25.0348 29.6164Z" fill="black"/>
</svg>
