<svg width="18" height="24" viewBox="0 0 18 24" fill="none" xmlns="http://www.w3.org/2000/svg">
<path fill-rule="evenodd" clip-rule="evenodd" d="M9.00009 0C4.03298 0 0 3.94319 0 8.79993C0 12.0119 2.74421 18.0735 5.38276 21.4129C6.09795 22.3184 6.81057 23.0289 7.45437 23.4568C8.00831 23.8255 8.53681 24 9 24C9.46319 24 9.99169 23.8255 10.5456 23.4568C11.1896 23.0287 11.9022 22.3184 12.6172 21.4129C15.2559 18.0736 18 12.0123 18 8.79993C18 3.94328 13.9671 0 8.99991 0H9.00009ZM9.00009 1.59999C13.064 1.59999 16.3638 4.82639 16.3638 8.79993C16.3638 11.7696 13.7621 17.3471 11.3228 20.435C10.8237 21.0663 10.3328 21.5911 9.87056 21.955C9.54565 22.2111 9.26421 22.3999 8.99995 22.3999C8.7357 22.3999 8.45424 22.2111 8.12935 21.955C7.66711 21.5911 7.17618 21.0663 6.67709 20.435C4.23804 17.347 1.6361 11.7695 1.6361 8.79993C1.6361 4.82639 4.93588 1.59999 8.99981 1.59999H9.00009ZM9.14894 3.91677C6.66496 3.91677 4.64889 5.888 4.64889 8.31674C4.64889 10.7447 6.66496 12.7167 9.14894 12.7167C11.6329 12.7167 13.649 10.7447 13.649 8.31674C13.649 5.888 11.6329 3.91677 9.14894 3.91677ZM9.14894 5.51676C10.7296 5.51676 12.0126 6.77119 12.0126 8.31674C12.0126 9.86155 10.7296 11.1167 9.14894 11.1167C7.56824 11.1167 6.28527 9.86155 6.28527 8.31674C6.28527 6.77119 7.56824 5.51676 9.14894 5.51676Z" fill="black"/>
</svg>
