<?xml version="1.0" standalone="no"?>
<!DOCTYPE svg PUBLIC "-//W3C//DTD SVG 20010904//EN"
 "http://www.w3.org/TR/2001/REC-SVG-20010904/DTD/svg10.dtd">
<svg version="1.0" xmlns="http://www.w3.org/2000/svg"
 width="960.000000pt" height="960.000000pt" viewBox="0 0 960.000000 960.000000"
 preserveAspectRatio="xMidYMid meet">
<metadata>
Created by potrace 1.14, written by Peter Selinger 2001-2017
</metadata>
<g transform="translate(0.000000,960.000000) scale(0.100000,-0.100000)"
fill="#000000" stroke="none">
<path d="M2856 6979 c-132 -33 -242 -112 -342 -246 -142 -188 -229 -425 -250
-678 -4 -49 -8 -326 -9 -615 -2 -632 7 -583 -144 -780 -143 -186 -285 -316
-416 -381 -55 -27 -78 -32 -140 -33 -63 -1 -78 2 -95 20 -51 50 -51 50 -48
1025 2 499 5 910 8 912 6 6 120 16 260 22 163 8 295 23 395 46 105 24 161 91
151 182 -8 75 -8 76 -25 91 -14 12 -39 8 -191 -29 -151 -37 -258 -60 -385 -81
-16 -2 -41 -7 -55 -9 -14 -3 -42 -8 -64 -11 -21 -3 -47 -7 -58 -9 -11 -3 -46
-7 -77 -11 -31 -3 -58 -8 -61 -9 -3 -2 -37 -6 -75 -10 -39 -4 -73 -9 -76 -11
-3 -2 -30 -6 -60 -9 -30 -3 -67 -8 -84 -10 -44 -5 -145 -16 -185 -20 -130 -14
-155 -17 -161 -20 -3 -2 -21 -7 -40 -10 -166 -29 -220 -103 -215 -295 3 -116
22 -168 75 -204 71 -49 90 -32 88 79 0 63 4 88 20 120 35 66 97 114 168 129
112 24 225 42 326 52 l66 6 0 -883 c0 -486 3 -915 7 -952 13 -115 48 -171 129
-207 32 -15 60 -18 139 -15 185 7 322 62 439 177 94 93 262 296 343 415 16 24
32 40 36 38 10 -6 6 -450 -5 -490 -4 -16 -23 -55 -41 -86 -36 -59 -43 -89 -21
-89 6 0 71 15 142 34 72 19 137 36 145 38 37 8 39 30 40 306 1 344 -9 319 196
502 62 56 183 120 225 120 49 0 93 -37 106 -88 5 -21 10 -192 11 -381 2 -331
2 -346 23 -389 42 -86 146 -103 305 -49 80 27 206 99 274 155 61 51 194 188
237 244 20 26 38 46 40 44 2 -2 6 -39 9 -82 9 -139 33 -208 96 -280 110 -125
309 -150 497 -61 49 23 89 54 154 119 49 49 89 83 91 76 2 -7 12 -44 22 -82
20 -82 66 -140 122 -156 94 -26 268 3 389 64 165 83 290 213 417 434 26 45 52
82 57 82 5 0 9 -93 9 -217 0 -194 3 -222 20 -258 27 -58 42 -73 91 -94 55 -24
159 -25 209 -2 105 48 221 129 288 201 97 103 116 120 121 111 4 -5 6 -119 6
-252 l-1 -242 -34 -29 c-19 -16 -66 -50 -105 -75 -38 -26 -74 -51 -80 -55 -5
-5 -53 -40 -105 -79 -265 -199 -465 -413 -546 -584 -83 -174 -75 -364 19 -471
44 -50 79 -71 149 -90 57 -14 185 -16 235 -2 19 5 44 11 54 13 39 8 154 73
217 124 112 90 201 208 276 366 115 239 160 452 170 798 2 65 6 120 7 122 2 1
49 29 104 60 195 112 359 247 480 395 32 39 59 69 60 68 2 -2 6 -26 9 -54 23
-215 168 -347 376 -343 88 2 153 19 232 61 55 29 149 111 200 175 l26 32 12
-62 c23 -112 67 -175 139 -198 49 -16 201 -4 281 21 192 63 369 211 455 380
27 53 42 144 26 155 -5 2 -61 -60 -125 -139 -139 -173 -209 -239 -300 -282
-122 -59 -190 -54 -218 14 -15 36 -20 662 -7 757 6 39 14 94 18 123 4 29 5 55
1 57 -4 2 -49 -22 -101 -55 -52 -33 -104 -60 -116 -60 -13 0 -51 13 -85 29
-93 42 -132 53 -206 54 -150 1 -288 -60 -412 -185 -68 -68 -104 -121 -152
-226 -55 -120 -124 -210 -273 -356 -120 -117 -380 -306 -421 -306 -6 0 -9 183
-9 468 1 405 3 474 18 523 16 54 47 105 74 122 21 13 15 27 -12 27 -33 0 -307
-78 -320 -91 -6 -6 -10 -112 -11 -287 0 -152 -4 -293 -8 -312 -12 -49 -44 -87
-146 -175 -166 -142 -218 -166 -275 -129 -47 31 -52 75 -51 499 1 350 3 393
19 422 9 18 26 37 37 43 27 14 25 30 -2 30 -29 0 -279 -70 -295 -83 -10 -7
-13 -52 -13 -163 l0 -153 -56 -83 c-171 -252 -290 -387 -404 -462 -164 -107
-264 -113 -290 -15 -15 54 -15 659 -1 769 7 47 14 102 17 123 3 20 3 37 0 37
-3 0 -50 -27 -104 -60 -55 -33 -109 -60 -120 -60 -12 0 -42 11 -67 24 -70 38
-152 58 -230 57 -114 0 -184 -22 -287 -90 -102 -66 -177 -154 -260 -301 -86
-153 -159 -252 -254 -347 -132 -130 -256 -203 -343 -203 -42 0 -69 25 -86 80
-5 14 -9 180 -11 370 -2 385 -3 393 -70 448 -94 78 -233 62 -399 -44 -76 -48
-121 -87 -222 -186 l-93 -92 -1 70 c-2 198 -6 187 155 449 194 313 425 703
466 786 66 131 98 225 128 374 3 17 6 77 7 135 0 93 -3 112 -26 160 -66 141
-213 202 -383 159z m121 -110 c34 -11 75 -57 88 -98 7 -24 8 -297 1 -309 -2
-4 -7 -32 -10 -62 -26 -225 -119 -480 -289 -790 -81 -148 -205 -356 -238 -399
l-19 -24 -1 24 c-2 68 2 832 6 944 6 190 13 242 50 385 19 76 87 215 125 257
73 81 179 108 287 72z m1666 -1727 c58 -26 93 -65 114 -127 13 -40 17 -93 17
-270 1 -212 0 -222 -23 -265 -13 -25 -44 -65 -70 -91 -185 -178 -432 -94 -491
167 -16 69 -14 208 5 279 44 168 149 295 268 326 47 12 129 3 180 -19z m3491
3 c53 -28 77 -52 105 -106 29 -53 36 -116 36 -319 -1 -174 -2 -188 -24 -234
-73 -150 -258 -230 -391 -169 -225 103 -251 526 -46 750 90 99 220 131 320 78z
m-1588 -1273 c-2 -9 -7 -53 -11 -97 -12 -140 -15 -169 -20 -205 -2 -19 -7 -60
-10 -90 -10 -92 -24 -205 -30 -240 -3 -14 -7 -41 -10 -60 -12 -72 -68 -217
-113 -292 -60 -101 -128 -170 -206 -208 -141 -70 -260 -35 -318 94 -20 45 -22
67 -23 181 0 146 18 222 82 350 98 196 241 334 557 537 89 57 108 63 102 30z"/>
</g>
</svg>
