<svg width="71" height="91" viewBox="0 0 71 91" fill="none" xmlns="http://www.w3.org/2000/svg">
<path d="M20.2173 56.1443V52.3886C22.5064 52.0059 24.5352 50.6903 25.8214 48.7558C27.1076 46.8207 27.5361 44.4389 27.0056 42.1761C26.4745 39.9134 25.0319 37.9719 23.0199 36.8124V28.6596C23.0199 28.2875 22.8722 27.9304 22.6095 27.6673C22.3467 27.4042 21.9902 27.2563 21.6185 27.2563H20.2172V23.0465C20.2172 22.6744 20.0696 22.3173 19.8068 22.0542C19.5441 21.7911 19.1875 21.6432 18.8159 21.6432C17.9813 21.6439 17.1893 21.2717 16.6564 20.6284C16.1234 19.985 15.9044 19.1374 16.0595 18.3161C16.1678 17.7611 16.4386 17.2505 16.8384 16.8508C17.2375 16.4505 17.7474 16.1792 18.3017 16.0709C19.1218 15.9174 19.9682 16.1385 20.6095 16.6729C21.2507 17.2079 21.6205 18.001 21.6186 18.8367C21.6186 19.2088 21.7662 19.5659 22.029 19.829L23.8413 21.6431C24.7528 22.5133 25.9646 22.9982 27.2239 22.9982C28.4832 22.9982 29.695 22.5133 30.6065 21.6431L32.4181 19.829L30.4369 17.845L28.6252 19.6591C27.8401 20.4065 26.6076 20.4065 25.8225 19.6591L24.3887 18.222C24.2385 16.8589 23.5948 15.5985 22.58 14.6774C21.5647 13.7572 20.2484 13.241 18.8791 13.2259C17.5097 13.2109 16.1821 13.6983 15.1473 14.596C14.112 15.4937 13.4414 16.7404 13.2612 18.0999C13.081 19.4594 13.4038 20.8375 14.1689 21.9752C14.934 23.1122 16.0889 23.9298 17.4146 24.273V27.2563H16.0133C15.2394 27.2563 14.6119 27.8846 14.6119 28.6596V36.8154C12.6001 37.9744 11.1574 39.9164 10.6262 42.1791C10.0957 44.4412 10.5242 46.8231 11.8104 48.7582C13.0967 50.6932 15.1255 52.0083 17.4145 52.3916V56.1466L2.41008 71.1686C1.86331 71.7167 1.86331 72.605 2.41008 73.1532L17.8248 88.5892C18.3723 89.1368 19.2593 89.1368 19.8067 88.5892L35.2215 73.1532C35.7683 72.605 35.7683 71.7167 35.2215 71.1686L20.2173 56.1443ZM17.4146 30.0626H20.2173V35.8022C19.2908 35.6337 18.3411 35.6337 17.4146 35.8022V30.0626ZM13.2106 44.0953C13.2106 42.6069 13.8011 41.1791 14.8521 40.1261C15.9038 39.0736 17.3296 38.4822 18.8159 38.4822C20.3023 38.4822 21.7282 39.0736 22.7797 40.1261C23.8307 41.1792 24.4213 42.6069 24.4213 44.0953C24.4213 45.5838 23.8307 47.0116 22.7797 48.0646C21.7281 49.1171 20.3023 49.7084 18.8159 49.7084C17.3296 49.7084 15.9037 49.1171 14.8521 48.0646C13.8011 47.0115 13.2106 45.5838 13.2106 44.0953ZM30.0267 74.3869L22.6097 66.9596L20.6284 68.9436L28.0454 76.3709L18.8159 85.6131L5.38244 72.161L7.6052 69.9352L15.0222 77.3624L17.0035 75.3785L9.58646 67.9512L18.8159 58.709L32.2494 72.161L30.0267 74.3869Z" fill="white" stroke="white" stroke-width="3"/>
<path d="M68.8546 59.9432L53.8501 44.9187V41.163C56.1392 40.7803 58.168 39.4647 59.4542 37.5302C60.7404 35.5952 61.1689 33.2133 60.6384 30.9506C60.1073 28.6878 58.6647 26.7463 56.6527 25.5868V17.434C56.6527 17.0619 56.5051 16.7048 56.2423 16.4417C55.9796 16.1786 55.623 16.0308 55.2514 16.0308H53.85V11.8209C53.85 11.4488 53.7024 11.0917 53.4396 10.8286C53.1769 10.5655 52.8203 10.4177 52.4487 10.4177C51.6141 10.4183 50.8222 10.0462 50.2892 9.40279C49.7562 8.75941 49.5372 7.9118 49.6923 7.09051C49.8006 6.53547 50.0715 6.0249 50.4712 5.62522C50.8703 5.22491 51.3802 4.95365 51.9345 4.84527C52.7546 4.69179 53.601 4.91293 54.2423 5.4473C54.8835 5.98229 55.2533 6.77539 55.2514 7.61107C55.2514 7.98319 55.399 8.34028 55.6618 8.60339L57.4741 10.4175C58.3856 11.2877 59.5974 11.7726 60.8567 11.7726C62.116 11.7726 63.3278 11.2877 64.2393 10.4175L66.0509 8.60339L64.0697 6.61875L62.258 8.43355C61.4729 9.18093 60.2404 9.18093 59.4553 8.43355L58.0215 6.99645C57.8713 5.63327 57.2276 4.37289 56.2129 3.45186C55.1975 2.53158 53.8812 2.01538 52.5119 2.00034C51.1426 1.98529 49.8149 2.47269 48.7801 3.37042C47.7448 4.26814 47.0742 5.51478 46.894 6.87428C46.7138 8.23377 47.0366 9.61187 47.8018 10.7496C48.5669 11.8866 49.7217 12.7042 51.0474 13.0474V16.0307H49.6461C48.8722 16.0307 48.2447 16.659 48.2447 17.434V25.5898C46.2329 26.7488 44.7902 28.6908 44.259 30.9535C43.7285 33.2156 44.157 35.5975 45.4433 37.5326C46.7295 39.4677 48.7583 40.7827 51.0473 41.166V44.921L36.0429 59.943C35.4961 60.4911 35.4961 61.3795 36.0429 61.9276L51.4577 77.3636C52.0051 77.9112 52.8922 77.9112 53.4396 77.3636L68.8543 61.9276C69.4011 61.3795 69.4011 60.4911 68.8543 59.943L68.8546 59.9432ZM51.0471 18.8376H53.8498V24.5773C52.9233 24.4088 51.9736 24.4088 51.0471 24.5773V18.8376ZM46.8431 32.8704C46.8431 31.3819 47.4336 29.9541 48.4846 28.9011C49.5363 27.8487 50.9621 27.2573 52.4484 27.2573C53.9348 27.2573 55.3607 27.8487 56.4122 28.9011C57.4632 29.9542 58.0538 31.382 58.0538 32.8704C58.0538 34.3588 57.4632 35.7866 56.4122 36.8397C55.3606 37.8921 53.9348 38.4835 52.4484 38.4835C50.9621 38.4835 49.5362 37.8921 48.4846 36.8397C47.4336 35.7866 46.8431 34.3588 46.8431 32.8704ZM63.6592 63.1619L56.2421 55.7347L54.2609 57.7186L61.6779 65.1459L52.4484 74.3881L39.0149 60.9361L41.2377 58.7102L48.6547 66.1375L50.636 64.1535L43.219 56.7263L52.4484 47.484L65.8819 60.9361L63.6592 63.1619Z" fill="white" stroke="white" stroke-width="3"/>
</svg>
