<svg width="70" height="87" viewBox="0 0 70 87" fill="none" xmlns="http://www.w3.org/2000/svg">
<path d="M34.7809 87C45.3798 86.9982 55.4022 82.1654 62.0124 73.8681C68.6217 65.5708 71.1002 54.7114 68.7451 44.3617C66.3908 34.0137 59.4596 25.3014 49.9138 20.6885L56.2451 13.1557L56.2442 13.1565C57.1414 12.0856 57.2228 10.5505 56.4453 9.39011L51.0794 1.39322C50.5171 0.550807 49.5832 0.0315206 48.5723 1.09882e-06H22.8206C21.7738 -0.000874766 20.7953 0.52191 20.2137 1.39322L14.8853 9.34012C14.107 10.5004 14.1892 12.0354 15.0856 13.1065L20.9902 20.0989C11.118 24.3811 3.77573 32.9909 1.09735 43.4246C-1.58124 53.8595 0.70471 64.9476 7.28958 73.4668C13.8754 81.9865 24.022 86.9814 34.7807 86.9989L34.7809 87ZM28.6377 3.57876L34.9061 9.85575L28.6377 16.1327L22.3694 9.85575L28.6377 3.57876ZM34.7809 27.2542C41.3607 27.2542 47.6718 29.8717 52.324 34.5313C56.9771 39.1899 59.591 45.51 59.591 52.0986C59.591 58.6883 56.9771 65.0072 52.324 69.6659C47.6718 74.3254 41.3605 76.9429 34.7809 76.9429C28.2014 76.9429 21.8901 74.3254 17.2379 69.6659C12.5847 65.0072 9.97085 58.6881 9.97085 52.0986C9.97784 45.5115 12.5935 39.196 17.2448 34.5382C21.8961 29.8805 28.203 27.2612 34.7809 27.2542V27.2542Z" fill="black"/>
</svg>
