<svg width="98" height="91" viewBox="0 0 98 91" fill="none" xmlns="http://www.w3.org/2000/svg">
<path d="M95.0087 39.7916L66.9606 27.595L63.6281 7.32976C63.122 4.24092 60.5151 2 57.4276 2H40.5706C37.4832 2 34.8762 4.24016 34.3702 7.32976L31.0376 27.595L2.98953 39.7916C2.38866 40.0535 2 40.6498 2 41.3127V69.3355C2 75.9282 5.22446 82.0428 10.6308 85.6952C13.8254 87.8562 17.54 89 21.3785 89H76.6215C80.46 89 84.1776 87.8562 87.3692 85.6952C92.7726 82.0428 96 75.931 96 69.3355V41.3127C96.0007 40.6506 95.6121 40.0505 95.0105 39.7916H95.0087ZM33.1461 30.2863C33.6558 30.0643 34.0219 29.5938 34.113 29.0367L37.5891 7.87754C37.8312 6.39273 39.0855 5.31844 40.5687 5.31844H57.4257C58.9089 5.31844 60.1631 6.39562 60.4053 7.87754L63.8814 29.0367C63.9725 29.5938 64.3386 30.0673 64.8483 30.2863L71.9733 33.3854C71.2157 36.2759 67.122 47.4746 48.9954 50.1002C30.6981 47.4517 26.7342 36.2922 26.0137 33.3891L33.1461 30.2863ZM48.843 53.4246C48.8524 53.4246 48.8627 53.4246 48.8721 53.4276C50.3648 54.2133 52.5181 62.3602 52.5181 65.3757C52.5181 67.3481 50.9401 68.9483 48.9996 68.9483C47.0592 68.9483 45.4812 67.3473 45.4812 65.3757C45.4812 62.3602 47.6375 54.2066 48.8428 53.4246L48.843 53.4246ZM92.7324 69.3368C92.7324 74.8152 90.0504 79.903 85.5584 82.9391C82.9026 84.7354 79.8123 85.6869 76.6235 85.6869H21.3786C18.1868 85.6869 15.0994 84.7355 12.4437 82.9391C7.95194 79.903 5.26978 74.8188 5.26978 69.3368V42.4068L22.9952 34.7007C24.1255 38.6683 28.7122 49.307 45.5196 52.8241C43.1184 56.9574 42.2134 64.4843 42.2134 65.3758C42.2134 69.1741 45.2579 72.2628 48.9987 72.2628C52.7395 72.2628 55.784 69.1703 55.784 65.3758C55.784 64.4843 54.8827 56.9574 52.4815 52.8241C69.2896 49.3078 73.8764 38.6645 75.0058 34.7007L92.7313 42.4068L92.7324 69.3368Z" fill="black" stroke="black" stroke-width="3"/>
</svg>
