<svg width="103" height="82" viewBox="0 0 103 82" fill="none" xmlns="http://www.w3.org/2000/svg">
<path d="M101.229 54.4412L101.229 24.4533C101.229 14.9924 91.8112 6.62528 76.045 2.06753C75.5278 1.91772 74.9765 2.02038 74.5482 2.34358C74.1229 2.66754 73.8708 3.16791 73.8708 3.70327L73.8708 21.6909C73.8708 22.4506 74.3712 23.1183 75.0988 23.3259C83.2874 25.6871 89.8031 29.2643 93.7117 33.4642C92.2521 35.0452 90.3642 36.5646 88.0162 38.0019C79.2252 43.5517 65.9606 46.7335 51.6134 46.7335C37.2661 46.7335 24.0017 43.548 15.1892 37.9883C12.8691 36.5708 10.9843 35.0553 9.51422 33.4644C13.4236 29.2637 19.9385 25.6865 28.1272 23.3261C28.8555 23.1147 29.3551 22.447 29.3551 21.6911L29.3551 3.70346C29.3551 3.16886 29.103 2.66469 28.6777 2.34377C28.2494 2.01981 27.6981 1.91792 27.184 2.06772C11.415 6.62586 2.00046 14.9932 2.00046 24.4535L2.00046 54.4413C2.00045 68.8489 23.7916 80.1327 51.6132 80.1327C79.4368 80.1327 101.226 68.846 101.226 54.4413L101.229 54.4412ZM77.2736 20.4216L77.2736 6.01107C90.0112 10.1678 97.8264 17.1243 97.8264 24.4558C97.8264 25.0756 97.755 25.6923 97.6464 26.306C97.6122 26.49 97.5614 26.6741 97.5173 26.8581C97.4155 27.2976 97.2857 27.7372 97.1262 28.1729C97.0548 28.3668 96.9797 28.5615 96.8984 28.7554C96.701 29.2155 96.4701 29.6718 96.2111 30.125C96.1261 30.2748 96.0547 30.4246 95.9628 30.5714C95.9286 30.6261 95.8846 30.6771 95.8504 30.7318C91.6889 26.4756 85.2181 22.8749 77.2738 20.4216L77.2736 20.4216ZM25.9559 6.01107L25.9559 20.4216C18.0118 22.8749 11.541 26.4756 7.38394 30.7302C7.34977 30.6793 7.30572 30.6283 7.27534 30.5766C7.16979 30.4063 7.08474 30.2329 6.98601 30.0587C6.74452 29.6298 6.52354 29.2002 6.33976 28.7675C6.25167 28.5629 6.17269 28.3584 6.09827 28.1508C5.94183 27.7249 5.81578 27.2922 5.71706 26.8633C5.67302 26.6762 5.61834 26.4884 5.58796 26.3013C5.47937 25.6884 5.40798 25.0747 5.40798 24.455C5.40343 17.1242 13.2185 10.1667 25.9568 6.01098L25.9559 6.01107ZM5.40313 54.4425L5.40313 33.8789C5.56336 34.0903 5.72967 34.2979 5.89978 34.5055C5.90282 34.5124 5.90965 34.5192 5.91649 34.5223C5.91952 34.5253 5.92332 34.5321 5.92636 34.5359C5.9294 34.539 5.9332 34.539 5.9332 34.5428C7.73982 36.8454 10.189 38.9275 13.3975 40.8896C22.717 46.7741 36.6447 50.1466 51.6141 50.1466C66.5835 50.1466 80.5108 46.7741 89.8132 40.9003C93.0588 38.914 95.5216 36.8221 97.3047 34.5362C97.4847 34.3179 97.6586 34.0966 97.8249 33.8754L97.8249 54.4428C97.8249 66.5235 76.6598 76.7274 51.6142 76.7274C26.5687 76.7274 5.40358 66.5244 5.40358 54.4428L5.40313 54.4425Z" fill="black" stroke="black" stroke-width="3"/>
<path d="M52.8225 70.1263L58.8134 64.1271C59.4528 63.4868 59.4528 62.3553 58.8134 61.7188L52.8225 55.7226C52.1588 55.058 51.0805 55.058 50.4175 55.7226L44.4267 61.7188C44.107 62.039 43.93 62.4717 43.93 62.9249C43.93 63.3781 44.11 63.8108 44.4267 64.131L50.4175 70.1301C51.0805 70.794 52.1558 70.794 52.8225 70.1263L52.8225 70.1263ZM48.0321 62.9248L51.618 59.3369L55.2038 62.924L51.618 66.5156L48.0321 62.9248Z" fill="black" stroke="black" stroke-width="3"/>
</svg>
